<?xml version="1.0" encoding="UTF-8"?>
<svg id="Ebene_2" data-name="Ebene 2" xmlns="http://www.w3.org/2000/svg" viewBox="0 0 582.96 465.78">
  <defs>
    <style>
      .cls-1 {
        fill: #aebddd;
      }

      .cls-2 {
        fill: #ee7478;
      }

      .cls-3 {
        fill: #fff;
      }

      .cls-4 {
        fill: #645e82;
      }

      .cls-5 {
        fill: #f9cacc;
      }

      .cls-6 {
        fill: #34130d;
      }
    </style>
  </defs>
  <g id="Layer_1" data-name="Layer 1">
    <g>
      <path class="cls-1" d="m35.34,3.87C-41.33,47.25-10.67,465.78,302.99,465.78S616.45,31.61,551.11,3.87c-33.42-14.19-113.25,54.23-136.93,92.95-57.34-41.4-186.21-33.9-242.97,0C125.9,44.85,70.54-16.05,35.34,3.87Z"/>
      <path class="cls-3" d="m295.89,295.4c-15.24-.67-27.85,11.77-62.31,24.33-29.07,10.59-57.15,16.44-64.81,25.6-13.8,16.51-4.13,39.36,28.66,60.51,32.98,21.27,77.29,31.32,100.7,30.09,29.23-1.53,63.53-12.31,91.53-31.05,29.17-19.52,44.37-47.17,26.67-60.47-19.38-14.58-53.68-22.46-67.67-27.83-26.93-10.33-43.29-20.76-52.76-21.18Z"/>
      <g>
        <path class="cls-5" d="m49.22,44.88c-24.4,14.39-26.45,88.2-9.98,136.59,21.62-33.98,105.31-74.43,105.31-74.43,0,0-58.95-83.63-95.34-62.17Z"/>
        <path class="cls-5" d="m537.79,44.88c23.77,13.76,26.02,93.13,9.55,141.52-21.62-33.98-105.64-80.61-105.64-80.61,0,0,64.15-79.41,96.09-60.91Z"/>
      </g>
      <g>
        <g>
          <circle class="cls-3" cx="169.22" cy="240.84" r="73.03" transform="translate(-120.74 190.2) rotate(-45)"/>
          <circle class="cls-6" cx="180.84" cy="239.01" r="46.46"/>
          <path class="cls-3" d="m179.64,223.5c0,6.9,5.59,12.49,12.49,12.49s12.49-5.59,12.49-12.49-5.59-12.49-12.49-12.49-12.49,5.59-12.49,12.49Z"/>
        </g>
        <g>
          <circle class="cls-3" cx="417.33" cy="240.84" r="73.03" transform="translate(-48.07 365.64) rotate(-45)"/>
          <circle class="cls-6" cx="405.19" cy="239.01" r="46.46"/>
          <path class="cls-3" d="m403.99,223.5c0,6.9,5.59,12.49,12.49,12.49s12.49-5.59,12.49-12.49-5.59-12.49-12.49-12.49-12.49,5.59-12.49,12.49Z"/>
        </g>
      </g>
      <g>
        <path class="cls-6" d="m146.01,117.58c17.71-5.43,24.06,15.73,13.93,18.3-24.64,6.25-36.11,11.98-38.76,10.79-5.29-2.35,8.81-24.18,24.84-29.1Z"/>
        <path class="cls-6" d="m440.54,117.58c-17.71-5.43-24.06,15.73-13.93,18.3,24.64,6.25,36.11,11.98,38.76,10.79,5.29-2.35-8.81-24.18-24.84-29.1Z"/>
      </g>
      <g>
        <g>
          <path class="cls-6" d="m240.25,339.7s-1.61,49.38,52.62,49.38c57.07,0,53.43-49.38,53.43-49.38,0,0-33.61,5.15-52.55-16.08-16.66,20.63-41.45,19.37-53.51,16.08Z"/>
          <path class="cls-2" d="m336.43,371.55c-7.73-8.18-19.99-14.57-39.49-14.57-22.94,0-36.06,7.98-43.56,17.53,7.73,8.18,19.99,14.57,39.49,14.57,22.94,0,36.06-7.98,43.56-17.53Z"/>
        </g>
        <path class="cls-6" d="m293.76,335.61c-.17,0-.35-.01-.53-.04-2.13-.29-3.62-2.25-3.33-4.38.03-.18,2.44-18.26-.22-29.15-.51-2.09.77-4.19,2.86-4.7,2.1-.51,4.19.77,4.7,2.86,3.01,12.33.48,31.25.37,32.05-.27,1.95-1.94,3.36-3.85,3.36Z"/>
        <path class="cls-2" d="m335.98,256.98c-9.75-11.64-34.77-14.15-47.28-13.15-16.46,1.28-33.07,6.68-40.09,15.8-10.03,13.03-1.79,24.95,15.72,36.15,10.74,6.87,28.27,11.65,31.28,11.65,1.88,0,20.46-6.87,29.63-13.74,16.18-12.13,20.5-24.94,10.73-36.7Z"/>
      </g>
      <g>
        <g>
          <path class="cls-4" d="m28.02,323.2c-1.26,0-2.47-.7-3.06-1.9-.84-1.69-.15-3.74,1.54-4.58,56.06-27.82,168.16-29.52,249.89-3.8,1.8.57,2.8,2.48,2.23,4.28-.57,1.8-2.49,2.8-4.28,2.23-80.28-25.27-190.1-23.74-244.8,3.4-.49.24-1.01.36-1.52.36Z"/>
          <path class="cls-4" d="m22.12,350.48c-1.24,0-2.44-.68-3.05-1.86-.86-1.68-.19-3.74,1.49-4.6,61.04-31.2,159.64-43.67,229.36-29.02,1.85.39,3.03,2.2,2.64,4.05-.39,1.85-2.2,3.03-4.05,2.64-68.37-14.37-165.04-2.15-224.85,28.42-.5.25-1.03.38-1.55.38Z"/>
          <path class="cls-4" d="m36.58,382.26c-1.13,0-2.24-.56-2.89-1.58-1.01-1.59-.54-3.7,1.05-4.72,57.84-36.78,154.84-58.45,225.63-50.39,1.88.21,3.22,1.91,3.01,3.78-.21,1.88-1.91,3.23-3.78,3.01-69.42-7.89-164.51,13.33-221.2,49.37-.57.36-1.2.53-1.83.53Z"/>
        </g>
        <g>
          <path class="cls-4" d="m560.78,325.48c-.51,0-1.03-.11-1.52-.36-54.7-27.14-164.51-28.67-244.8-3.4-1.8.57-3.72-.43-4.28-2.23-.57-1.8.43-3.72,2.23-4.28,81.72-25.73,193.82-24.02,249.89,3.8,1.69.84,2.38,2.89,1.54,4.58-.6,1.2-1.81,1.9-3.06,1.9Z"/>
          <path class="cls-4" d="m566.68,352.76c-.52,0-1.05-.12-1.55-.38-59.81-30.57-156.48-42.79-224.85-28.42-1.85.39-3.66-.79-4.05-2.64-.39-1.85.79-3.66,2.64-4.05,69.72-14.65,168.33-2.17,229.36,29.02,1.68.86,2.35,2.92,1.49,4.6-.6,1.18-1.8,1.86-3.05,1.86Z"/>
          <path class="cls-4" d="m552.22,384.53c-.63,0-1.26-.17-1.83-.53-56.68-36.04-151.78-57.26-221.2-49.37-1.88.21-3.57-1.13-3.78-3.01-.21-1.88,1.13-3.57,3.01-3.78,70.79-8.06,167.79,13.61,225.63,50.39,1.59,1.01,2.06,3.12,1.05,4.72-.65,1.02-1.76,1.58-2.89,1.58Z"/>
        </g>
      </g>
    </g>
  </g>
</svg>