<?xml version="1.0" encoding="UTF-8"?>
<svg id="Ebene_2" data-name="Ebene 2" xmlns="http://www.w3.org/2000/svg" viewBox="0 0 599.98 467.72">
  <defs>
    <style>
      .cls-1 {
        fill: #fcc03d;
      }

      .cls-2 {
        fill: #773612;
      }

      .cls-3 {
        fill: #b27639;
      }

      .cls-4 {
        fill: #ffedad;
      }

      .cls-5 {
        fill: #e54a0f;
      }
    </style>
  </defs>
  <g id="Layer_1" data-name="Layer 1">
    <g>
      <path class="cls-1" d="m43.01,17.2C-51.14,84.35-3,467.72,310.66,467.72S645.33,60.34,558.78,17.2c-62.7-31.26-118.04,21.76-136.93,81.56-57.34-41.4-186.21-33.9-242.97,0C148.66,11.29,100.93-24.11,43.01,17.2Z"/>
      <path class="cls-3" d="m558.78,17.2c-62.7-31.26-118.04,21.76-136.93,81.56-13.76-9.93-31.65-17.02-51.66-21.64-.61.51-1.22.99-1.84,1.5-28.28,23.46-112.25,289.74,124.93,319.96,126.98-118.18,129.53-349.47,65.5-381.39Z"/>
      <path class="cls-2" d="m156.79,108.98c-.21-.91-.53-1.75-.91-2.55-5.59-15.11-36.48-92.01-82.26-78.08-45.73,13.92-57.56,105.36-41.09,153.74,7.95,25.18,39.76,11.93,44.4-27.17,21.87,29.82,42.41,8.61,41.09-19.88,20.54,20.54,44.41-1.1,38.77-26.07Z"/>
      <path class="cls-2" d="m448.73,108.98c.21-.91.53-1.75.91-2.55,5.59-15.11,40.83-90.41,86.6-76.48,45.73,13.92,53.21,103.76,36.74,152.15-7.95,25.18-39.76,11.93-44.4-27.17-21.87,29.82-42.41,8.61-41.09-19.88-20.54,20.54-44.41-1.1-38.77-26.07Z"/>
      <circle class="cls-4" cx="176.89" cy="242.78" r="73.03" transform="translate(-119.86 196.19) rotate(-45)"/>
      <circle class="cls-4" cx="425" cy="242.78" r="73.03" transform="translate(-47.19 371.63) rotate(-45)"/>
      <g>
        <path class="cls-2" d="m143.2,264.5c-2.57-.42-4.55-2.64-4.58-5.34-.35-29.71,20.84-47.22,41.96-49.16,20.64-1.89,43.94,10.46,49.49,42.36.52,2.98-1.48,5.82-4.46,6.33-2.99.52-5.82-1.48-6.34-4.46-4.64-26.73-23.21-34.66-37.68-33.32-15.61,1.44-32.29,13.98-32,38.12.03,3.03-2.39,5.51-5.42,5.54-.33,0-.65-.02-.96-.07Z"/>
        <path class="cls-2" d="m379.1,266.85c-2.55-.54-4.42-2.85-4.33-5.55,1.01-29.69,22.98-46.22,44.16-47.2,20.7-.95,43.42,12.46,47.5,44.57.38,3-1.74,5.74-4.75,6.12-3.01.38-5.74-1.75-6.13-4.74-3.42-26.91-21.6-35.68-36.12-35.01-15.66.72-32.89,12.49-33.71,36.62-.1,3.02-2.64,5.39-5.66,5.29-.33-.01-.65-.05-.96-.11Z"/>
      </g>
      <g>
        <path class="cls-2" d="m301.43,333.91c-.17,0-.35-.01-.53-.04-2.13-.29-3.62-2.25-3.33-4.38.03-.18,2.44-18.26-.22-29.15-.51-2.09.77-4.19,2.86-4.7,2.1-.51,4.19.77,4.7,2.86,3.01,12.33.48,31.25.37,32.05-.27,1.95-1.94,3.36-3.85,3.36Z"/>
        <path class="cls-5" d="m333.33,270.07c-7.42-6.98-26.47-8.48-35.99-7.88-12.53.77-25.17,4-30.52,9.47-7.64,7.81-1.37,14.95,11.97,21.66,8.18,4.12,21.52,6.98,23.82,6.98,1.43,0,15.58-4.12,22.56-8.23,12.32-7.27,15.61-14.94,8.17-21.99Z"/>
      </g>
      <path class="cls-2" d="m329.77,351.99h-.1c-10.14-.03-21.77-4.72-28.16-13.74-5.53,8.93-17.49,13.27-28.25,13.5-12.63.23-26.36-5.01-28.56-17.42-.33-1.86.91-3.63,2.77-3.96,1.85-.32,3.63.91,3.96,2.77,1.5,8.42,11.95,12,21.69,11.78,10.83-.23,23.13-5.26,24.54-15.76.21-1.6,1.52-2.83,3.12-2.95,1.58-.13,3.08.89,3.54,2.43,3.21,10.8,15.19,16.49,25.37,16.52,9.54.09,16.55-4.61,18.92-12.41.55-1.81,2.45-2.83,4.26-2.28,1.81.55,2.83,2.45,2.28,4.26-3.28,10.82-12.76,17.26-25.37,17.26Z"/>
      <g>
        <g>
          <path class="cls-2" d="m34.17,318.3c-1.26,0-2.47-.7-3.06-1.9-.84-1.69-.15-3.74,1.54-4.58,56.06-27.82,168.16-29.52,249.89-3.8,1.8.57,2.8,2.48,2.23,4.28-.57,1.8-2.49,2.8-4.28,2.23-80.28-25.27-190.1-23.74-244.8,3.4-.49.24-1.01.36-1.52.36Z"/>
          <path class="cls-2" d="m28.28,345.58c-1.24,0-2.44-.68-3.05-1.86-.86-1.68-.19-3.74,1.49-4.6,61.04-31.2,159.64-43.67,229.36-29.02,1.85.39,3.03,2.2,2.64,4.05-.39,1.85-2.2,3.03-4.05,2.64-68.37-14.37-165.04-2.15-224.85,28.42-.5.25-1.03.38-1.55.38Z"/>
          <path class="cls-2" d="m42.74,377.36c-1.13,0-2.24-.56-2.89-1.58-1.01-1.59-.54-3.7,1.05-4.72,57.84-36.78,154.84-58.45,225.63-50.39,1.88.21,3.22,1.91,3.01,3.78-.21,1.88-1.91,3.23-3.78,3.01-69.42-7.89-164.51,13.33-221.2,49.37-.57.36-1.2.53-1.83.53Z"/>
        </g>
        <g>
          <path class="cls-2" d="m566.94,320.58c-.51,0-1.03-.11-1.52-.36-54.7-27.14-164.52-28.67-244.8-3.4-1.8.57-3.72-.43-4.28-2.23-.57-1.8.43-3.72,2.23-4.28,81.72-25.73,193.82-24.02,249.89,3.8,1.69.84,2.38,2.89,1.54,4.58-.6,1.2-1.81,1.9-3.06,1.9Z"/>
          <path class="cls-2" d="m572.83,347.86c-.52,0-1.05-.12-1.55-.38-59.81-30.57-156.48-42.79-224.85-28.42-1.85.39-3.66-.79-4.05-2.64-.39-1.85.79-3.66,2.64-4.05,69.72-14.65,168.33-2.17,229.36,29.02,1.68.86,2.35,2.92,1.49,4.6-.6,1.18-1.8,1.86-3.05,1.86Z"/>
          <path class="cls-2" d="m558.37,379.64c-.63,0-1.26-.17-1.83-.53-56.68-36.04-151.78-57.27-221.2-49.37-1.88.21-3.57-1.13-3.78-3.01-.21-1.88,1.13-3.57,3.01-3.78,70.79-8.06,167.79,13.61,225.63,50.39,1.59,1.01,2.06,3.12,1.05,4.72-.65,1.02-1.76,1.58-2.89,1.58Z"/>
        </g>
      </g>
    </g>
  </g>
</svg>