<?xml version="1.0" encoding="UTF-8"?>
<svg id="Ebene_2" data-name="Ebene 2" xmlns="http://www.w3.org/2000/svg" viewBox="0 0 599.98 467.72">
  <defs>
    <style>
      .cls-1 {
        fill: #fff;
      }

      .cls-2 {
        fill: #7d67a1;
      }

      .cls-3 {
        fill: #040400;
      }

      .cls-4 {
        fill: #e84133;
      }

      .cls-5 {
        fill: #b3a8c4;
      }

      .cls-6 {
        fill: #dbd6e5;
      }

      .cls-7 {
        fill: #f7f9fd;
      }
    </style>
  </defs>
  <g id="Layer_1" data-name="Layer 1">
    <g>
      <path class="cls-6" d="m43.01,17.2C-51.14,84.35-3,467.72,310.66,467.72S645.33,60.34,558.78,17.2c-62.7-31.26-118.04,21.76-136.93,81.56-57.34-41.4-186.21-33.9-242.97,0C148.66,11.29,100.93-24.11,43.01,17.2Z"/>
      <path class="cls-5" d="m558.78,17.2c-62.7-31.26-118.04,21.76-136.93,81.56-13.76-9.93-31.65-17.02-51.66-21.64-.61.51-1.22.99-1.84,1.5-28.28,23.46-112.25,289.74,124.93,319.96,126.98-118.18,129.53-349.47,65.5-381.39Z"/>
      <path class="cls-2" d="m156.79,108.98c-.21-.91-.53-1.75-.91-2.55-5.59-15.11-36.48-92.01-82.26-78.08-45.73,13.92-57.56,105.36-41.09,153.74,7.95,25.18,39.76,11.93,44.4-27.17,21.87,29.82,42.41,8.61,41.09-19.88,20.54,20.54,44.41-1.1,38.77-26.07Z"/>
      <path class="cls-2" d="m448.73,108.98c.21-.91.53-1.75.91-2.55,5.59-15.11,40.83-90.41,86.6-76.48,45.73,13.92,53.21,103.76,36.74,152.15-7.95,25.18-39.76,11.93-44.4-27.17-21.87,29.82-42.41,8.61-41.09-19.88-20.54,20.54-44.41-1.1-38.77-26.07Z"/>
      <g>
        <g>
          <circle class="cls-5" cx="166.39" cy="242.78" r="93.9"/>
          <ellipse class="cls-4" cx="162.74" cy="341.58" rx="43.84" ry="20.63"/>
          <ellipse class="cls-4" cx="444.68" cy="341.58" rx="43.84" ry="20.63"/>
          <circle class="cls-7" cx="176.89" cy="242.78" r="73.03" transform="translate(-36.61 31.47) rotate(-9.22)"/>
          <circle class="cls-3" cx="199.91" cy="240.95" r="46.46"/>
          <path class="cls-1" d="m207.82,225.44c0,6.9,5.59,12.49,12.49,12.49s12.49-5.59,12.49-12.49-5.59-12.49-12.49-12.49-12.49,5.59-12.49,12.49Z"/>
        </g>
        <g>
          <circle class="cls-7" cx="425" cy="242.78" r="73.03" transform="translate(-33.4 71.21) rotate(-9.22)"/>
          <circle class="cls-3" cx="447.04" cy="240.95" r="46.46"/>
          <path class="cls-1" d="m454.95,225.44c0,6.9,5.59,12.49,12.49,12.49s12.49-5.59,12.49-12.49-5.59-12.49-12.49-12.49-12.49,5.59-12.49,12.49Z"/>
        </g>
      </g>
      <g>
        <path class="cls-3" d="m301.43,330.76c-.17,0-.35-.01-.53-.04-2.13-.29-3.62-2.25-3.33-4.38.03-.18,2.44-18.26-.22-29.15-.51-2.09.77-4.19,2.86-4.7,2.1-.51,4.19.77,4.7,2.86,3.01,12.33.48,31.25.37,32.05-.27,1.95-1.94,3.36-3.85,3.36Z"/>
        <path class="cls-4" d="m333.33,270.07c-7.42-6.98-26.47-8.48-35.99-7.88-12.53.77-25.17,4-30.52,9.47-7.64,7.81-1.37,14.95,11.97,21.66,8.18,4.12,21.52,6.98,23.82,6.98,1.43,0,15.58-4.12,22.56-8.23,12.32-7.27,15.61-14.94,8.17-21.99Z"/>
      </g>
      <path class="cls-3" d="m329.77,348.84h-.1c-10.14-.03-21.77-4.72-28.16-13.74-5.53,8.93-17.49,13.27-28.25,13.5-12.63.23-26.36-5.01-28.56-17.42-.33-1.86.91-3.63,2.77-3.96,1.85-.32,3.63.91,3.96,2.77,1.5,8.42,11.95,12,21.69,11.78,10.83-.23,23.13-5.26,24.54-15.76.21-1.6,1.52-2.83,3.12-2.95,1.58-.13,3.08.89,3.54,2.43,3.21,10.81,15.19,16.49,25.37,16.52,9.54.09,16.55-4.61,18.92-12.41.55-1.81,2.45-2.83,4.26-2.28,1.81.55,2.83,2.45,2.28,4.26-3.28,10.82-12.76,17.26-25.37,17.26Z"/>
      <g>
        <g>
          <path class="cls-3" d="m34.17,318.3c-1.26,0-2.47-.7-3.06-1.9-.84-1.69-.15-3.74,1.54-4.58,56.06-27.82,168.16-29.52,249.89-3.8,1.8.57,2.8,2.48,2.23,4.28-.57,1.8-2.49,2.8-4.28,2.23-80.28-25.27-190.1-23.74-244.8,3.4-.49.24-1.01.36-1.52.36Z"/>
          <path class="cls-3" d="m28.28,345.58c-1.24,0-2.44-.68-3.05-1.86-.86-1.68-.19-3.74,1.49-4.6,61.04-31.2,159.64-43.67,229.36-29.02,1.85.39,3.03,2.2,2.64,4.05-.39,1.85-2.2,3.03-4.05,2.64-68.37-14.37-165.04-2.15-224.85,28.42-.5.25-1.03.38-1.55.38Z"/>
        </g>
        <g>
          <path class="cls-3" d="m566.94,320.58c-.51,0-1.03-.11-1.52-.36-54.7-27.14-164.52-28.67-244.8-3.4-1.8.57-3.72-.43-4.28-2.23-.57-1.8.43-3.72,2.23-4.28,81.72-25.73,193.82-24.02,249.89,3.8,1.69.84,2.38,2.89,1.54,4.58-.6,1.2-1.81,1.9-3.06,1.9Z"/>
          <path class="cls-3" d="m572.83,347.86c-.52,0-1.05-.12-1.55-.38-59.81-30.57-156.48-42.79-224.85-28.42-1.85.39-3.66-.79-4.05-2.64-.39-1.85.79-3.66,2.64-4.05,69.72-14.65,168.33-2.17,229.36,29.02,1.68.86,2.35,2.92,1.49,4.6-.6,1.18-1.8,1.86-3.05,1.86Z"/>
        </g>
      </g>
    </g>
  </g>
</svg>