<?xml version="1.0" encoding="UTF-8"?>
<svg id="Ebene_2" data-name="Ebene 2" xmlns="http://www.w3.org/2000/svg" viewBox="0 0 584.54 463.82">
  <defs>
    <style>
      .cls-1 {
        fill: #fff;
      }

      .cls-2 {
        fill: #040400;
      }

      .cls-3 {
        fill: #eb5e3b;
      }

      .cls-4 {
        fill: #e9e2cf;
      }

      .cls-5 {
        fill: #f2a27d;
      }

      .cls-6 {
        fill: #421b14;
      }
    </style>
  </defs>
  <g id="Layer_1" data-name="Layer 1">
    <g>
      <path class="cls-5" d="m268.52,70c-24.59-11.25-27.6-33.64-18.58-36.47,19.16-6,32.98,21.32,32.98,21.32,0,0-16.61-38.77,7.29-41.81,28.39-3.6,12.14,44.57,11.28,42.51-.87-2.06,18.53-27.95,32.95-22.87,14.81,5.22-6.46,35.98-19.07,37.31h-46.85Z"/>
      <path class="cls-5" d="m36.92,1.91C-43.35,38.19-9.1,463.82,304.57,463.82S618.03,29.65,552.69,1.91c-33.42-14.19-113.25,54.23-136.93,92.95-57.34-41.4-186.21-33.9-242.97,0C127.3,28.63,60.01-8.53,36.92,1.91Z"/>
      <path class="cls-4" d="m95.33,373.21c48.15,53.37,116.47,90.6,209.23,90.6,85.65,0,147.94-35.49,191.71-86.82-204.81,61.95-164.12-247.06-154.27-307.76-30.73-4.15-64.41-3.3-95.12,1.6,61.23,258.68-70.3,324.24-151.56,302.38Z"/>
      <g>
        <path class="cls-3" d="m50.8,36.08c-24.4,14.39-26.45,88.2-9.98,136.59,21.62-33.98,105.31-74.43,105.31-74.43,0,0-58.95-83.63-95.34-62.17Z"/>
        <path class="cls-3" d="m539.37,36.08c23.77,13.76,26.02,93.13,9.55,141.52-21.62-33.98-105.64-80.61-105.64-80.61,0,0,64.15-79.41,96.09-60.91Z"/>
      </g>
      <g>
        <g>
          <circle class="cls-1" cx="170.8" cy="238.88" r="73.03" transform="translate(-36.06 30.44) rotate(-9.22)"/>
          <circle class="cls-6" cx="193.81" cy="237.05" r="46.46"/>
          <path class="cls-1" d="m203.21,221.54c0,6.9,5.59,12.49,12.49,12.49s12.49-5.59,12.49-12.49-5.59-12.49-12.49-12.49-12.49,5.59-12.49,12.49Z"/>
        </g>
        <g>
          <circle class="cls-1" cx="418.91" cy="238.88" r="73.03" transform="translate(-32.86 70.19) rotate(-9.22)"/>
          <circle class="cls-6" cx="397.41" cy="237.05" r="46.46"/>
          <path class="cls-1" d="m361.73,221.54c0,6.9,5.59,12.49,12.49,12.49s12.49-5.59,12.49-12.49-5.59-12.49-12.49-12.49-12.49,5.59-12.49,12.49Z"/>
        </g>
      </g>
      <g>
        <path class="cls-2" d="m147.59,115.62c17.71-5.43,24.06,15.73,13.93,18.3-24.64,6.25-36.11,11.98-38.76,10.79-5.29-2.35,8.81-24.18,24.84-29.1Z"/>
        <path class="cls-2" d="m442.12,115.62c-17.71-5.43-24.06,15.73-13.93,18.3,24.64,6.25,36.11,11.98,38.76,10.79,5.29-2.35-8.81-24.18-24.84-29.1Z"/>
      </g>
      <g>
        <g>
          <path class="cls-6" d="m243.63,337.91c-.85-.07-1.47.76-1.17,1.56,3.35,8.76,20.03,47.64,51.99,47.64,28.71,0,48.38-38.5,52.59-47.51.38-.81-.26-1.72-1.15-1.64-7.37.7-33.46,1.78-49.71-15.39-.46-.49-1.21-.49-1.67,0-13.84,14.78-39.68,16.22-50.88,15.33Z"/>
          <path class="cls-3" d="m295.6,358.15c-11.94,0-22.66,7.12-31.19,15.78,7.86,7.5,17.83,13.19,30.04,13.19,11.34,0,21.26-6.01,29.38-13.83-7.34-7.37-17.48-15.14-28.23-15.14Z"/>
        </g>
        <path class="cls-6" d="m294.52,334.46c-.17,0-.35-.01-.53-.04-2.13-.29-3.62-2.25-3.33-4.38.03-.18,2.44-18.26-.22-29.15-.51-2.09.77-4.19,2.86-4.7,2.1-.51,4.19.77,4.7,2.86,3.01,12.33.48,31.25.37,32.05-.27,1.95-1.94,3.36-3.85,3.36Z"/>
        <path class="cls-3" d="m326.67,266.9c-7.45-8.9-26.58-10.82-36.14-10.06-12.58.98-25.28,5.1-30.65,12.08-7.67,9.96-1.37,19.07,12.02,27.63,8.21,5.25,21.61,8.9,23.91,8.9,1.44,0,15.64-5.25,22.65-10.5,12.37-9.27,15.67-19.06,8.2-28.06Z"/>
      </g>
      <g>
        <path class="cls-6" d="m276.94,317.63c-.54,0-1.09-.13-1.6-.4-52.54-27.83-134.85-13.73-151.14-7.61-1.76.66-3.74-.23-4.4-2-.66-1.77.23-3.74,2-4.4,17.56-6.59,101.39-21.36,156.74,7.97,1.67.88,2.3,2.95,1.42,4.62-.61,1.16-1.8,1.82-3.02,1.82Z"/>
        <path class="cls-6" d="m117.1,337.12c-1.15,0-2.27-.58-2.91-1.63-.99-1.61-.49-3.71,1.12-4.7,18.78-11.56,93.58-31.15,136.52-17.68,1.8.57,2.8,2.48,2.24,4.28-.57,1.8-2.48,2.8-4.28,2.24-39.52-12.39-112.26,5.52-130.89,16.98-.56.34-1.18.51-1.79.51Z"/>
        <path class="cls-6" d="m131.56,368.9c-.87,0-1.74-.33-2.4-.99-1.34-1.33-1.35-3.49-.02-4.83,36.36-36.69,105.67-43.89,132.99-39.46,1.86.3,3.13,2.06,2.83,3.92-.3,1.86-2.05,3.12-3.92,2.83-26.15-4.23-92.42,2.58-127.04,37.52-.67.67-1.55,1.01-2.43,1.01Z"/>
      </g>
      <g>
        <path class="cls-6" d="m314.17,317.63c.54,0,1.09-.13,1.6-.4,52.54-27.83,134.85-13.73,151.14-7.61,1.76.66,3.74-.23,4.4-2,.66-1.77-.23-3.74-2-4.4-17.56-6.59-101.39-21.36-156.74,7.97-1.67.88-2.3,2.95-1.42,4.62.61,1.16,1.8,1.82,3.02,1.82Z"/>
        <path class="cls-6" d="m474.01,337.12c1.15,0,2.27-.58,2.91-1.63.99-1.61.49-3.71-1.12-4.7-18.78-11.56-93.58-31.15-136.52-17.68-1.8.57-2.8,2.48-2.24,4.28.57,1.8,2.48,2.8,4.28,2.24,39.52-12.39,112.26,5.52,130.89,16.98.56.34,1.18.51,1.79.51Z"/>
        <path class="cls-6" d="m459.55,368.9c.87,0,1.74-.33,2.4-.99,1.34-1.33,1.35-3.49.02-4.83-36.36-36.69-105.67-43.89-132.99-39.46-1.86.3-3.13,2.06-2.83,3.92.3,1.86,2.05,3.12,3.92,2.83,26.15-4.23,92.42,2.58,127.04,37.52.67.67,1.55,1.01,2.43,1.01Z"/>
      </g>
    </g>
  </g>
</svg>