<?xml version="1.0" encoding="UTF-8"?>
<svg id="Ebene_2" data-name="Ebene 2" xmlns="http://www.w3.org/2000/svg" viewBox="0 0 599.98 467.72">
  <defs>
    <style>
      .cls-1 {
        fill: #fff;
      }

      .cls-2 {
        fill: #040400;
      }

      .cls-3 {
        fill: #4f4b4a;
      }

      .cls-4 {
        fill: #fbc13c;
      }

      .cls-5 {
        fill: #e9e2cf;
      }

      .cls-6 {
        fill: #f2a281;
      }
    </style>
  </defs>
  <g id="Layer_1" data-name="Layer 1">
    <g>
      <path class="cls-3" d="m43.01,17.2C-51.14,84.35-3,467.72,310.66,467.72S645.33,60.34,558.78,17.2c-62.7-31.26-118.04,21.76-136.93,81.56-57.34-41.4-186.21-33.9-242.97,0C148.66,11.29,100.93-24.11,43.01,17.2Z"/>
      <path class="cls-5" d="m302.58,291.43c-15.24-.67-27.85,11.77-62.31,24.33-29.07,10.59-57.15,16.44-64.81,25.6-13.8,16.51-4.13,39.36,28.66,60.51,32.98,21.27,77.29,31.32,100.7,30.09,29.23-1.53,63.53-12.31,91.53-31.05,29.17-19.52,44.37-47.17,26.67-60.47-19.38-14.58-53.68-22.46-67.67-27.83-26.93-10.33-43.29-20.76-52.76-21.18Z"/>
      <g>
        <path class="cls-5" d="m43.2,310.07c5.38,10.01,11.28,19.82,17.73,29.33,80.7-73.26,31.2-60.23-17.73-29.33Z"/>
        <path class="cls-5" d="m65.01,345.27c8.93,12.56,18.83,24.57,29.76,35.82,80.49-73.77,27.15-57.9-29.76-35.82Z"/>
        <path class="cls-5" d="m41.22,306.34c62.62-69.79,23.71-65.96-15.72-34.59,4.59,11.69,9.82,23.26,15.72,34.59Z"/>
        <path class="cls-5" d="m560.76,305.19c5.5-11.41,10.39-23.06,14.68-34.81-38.03-29.06-73.32-31.35-14.68,34.81Z"/>
        <path class="cls-5" d="m541.88,339.37c6.07-9.65,11.63-19.58,16.7-29.73-48.07-29.92-95-41.69-16.7,29.73Z"/>
        <path class="cls-5" d="m537.8,345.71c-56.66-21.97-109.05-37.32-28.41,36.57,10.44-11.47,19.9-23.73,28.41-36.57Z"/>
      </g>
      <g>
        <path class="cls-6" d="m73.61,28.35c-45.73,13.92-57.56,105.36-41.09,153.75,43.74-37.11,124.26-73.12,124.26-73.12,0,0-32.46-96.06-83.17-80.63Z"/>
        <path class="cls-6" d="m544.13,43.6c27.83,16.57,41.66,96.08,25.18,144.47-46.39-47.05-119.94-80.33-119.94-80.33,0,0,33.4-100.66,94.76-64.14Z"/>
      </g>
      <g>
        <g>
          <circle class="cls-4" cx="176.89" cy="242.78" r="73.03" transform="translate(-46.79 42.29) rotate(-12.05)"/>
          <circle class="cls-2" cx="199.91" cy="240.95" r="46.46"/>
          <circle class="cls-1" cx="220.31" cy="223.16" r="12.49"/>
        </g>
        <g>
          <circle class="cls-4" cx="425" cy="242.78" r="73.03" transform="translate(-44.41 104.14) rotate(-13.28)"/>
          <circle class="cls-2" cx="444.76" cy="240.95" r="46.46"/>
          <circle class="cls-1" cx="465.16" cy="223.16" r="12.49"/>
        </g>
      </g>
      <g>
        <path class="cls-2" d="m301.43,330.82c-.17,0-.35-.01-.53-.04-2.13-.29-3.62-2.25-3.33-4.38.03-.18,2.44-18.26-.22-29.15-.51-2.09.77-4.19,2.86-4.7,2.1-.51,4.19.77,4.7,2.86,3.01,12.33.48,31.25.37,32.05-.27,1.95-1.94,3.36-3.85,3.36Z"/>
        <path class="cls-6" d="m343.66,266.02c-9.75-7.93-34.77-9.63-47.28-8.95-16.46.87-33.07,4.54-40.09,10.76-10.03,8.87-1.79,16.98,15.72,24.61,10.74,4.68,28.27,7.93,31.28,7.93,1.88,0,20.46-4.68,29.63-9.35,16.18-8.25,20.5-16.98,10.73-24.98Z"/>
      </g>
      <path class="cls-2" d="m330.26,347.82h-.1c-10.14-.03-21.77-4.72-28.16-13.74-5.53,8.93-17.49,13.27-28.25,13.5-12.63.23-26.36-5.01-28.56-17.42-.33-1.86.91-3.63,2.77-3.96,1.85-.32,3.63.91,3.96,2.77,1.5,8.42,11.95,12,21.69,11.78,10.83-.23,23.13-5.26,24.54-15.76.21-1.6,1.52-2.83,3.12-2.95,1.58-.13,3.08.89,3.54,2.43,3.21,10.81,15.19,16.49,25.37,16.52,9.54.09,16.55-4.61,18.92-12.41.55-1.81,2.45-2.83,4.26-2.28,1.81.55,2.83,2.45,2.28,4.26-3.28,10.82-12.76,17.26-25.37,17.26Z"/>
      <g>
        <path class="cls-2" d="m141.97,388.4c-.94,0-1.88-.39-2.55-1.14-1.25-1.41-1.13-3.57.28-4.83,36.82-32.8,73.78-47.31,75.34-47.91,1.75-.68,3.74.2,4.42,1.95.68,1.76-.19,3.74-1.95,4.42-.37.14-37.41,14.7-73.26,46.64-.65.58-1.46.87-2.27.87Z"/>
        <path class="cls-2" d="m171.18,398.32c-.71,0-1.43-.22-2.04-.68-1.51-1.13-1.83-3.27-.7-4.78,21.57-28.93,63.39-54.47,65.15-55.54,1.62-.98,3.72-.46,4.69,1.15.98,1.61.46,3.72-1.15,4.69-.42.26-42.46,25.93-63.22,53.78-.67.9-1.7,1.37-2.74,1.37Z"/>
      </g>
      <g>
        <path class="cls-2" d="m459.93,388.4c-.81,0-1.62-.29-2.27-.87-35.84-31.94-72.89-46.49-73.25-46.64-1.76-.68-2.64-2.66-1.95-4.42.68-1.76,2.66-2.64,4.42-1.95,1.55.6,38.52,15.1,75.34,47.91,1.41,1.26,1.53,3.42.28,4.83-.68.76-1.61,1.14-2.55,1.14Z"/>
        <path class="cls-2" d="m430.72,398.32c-1.04,0-2.07-.47-2.74-1.37-20.76-27.85-62.8-53.53-63.22-53.78-1.61-.98-2.13-3.08-1.15-4.69.98-1.61,3.08-2.13,4.69-1.15,1.77,1.07,43.59,26.61,65.15,55.54,1.13,1.51.82,3.65-.7,4.78-.61.46-1.33.68-2.04.68Z"/>
      </g>
    </g>
  </g>
</svg>