<?xml version="1.0" encoding="UTF-8"?>
<svg id="Ebene_2" data-name="Ebene 2" xmlns="http://www.w3.org/2000/svg" viewBox="0 0 604.76 466.28">
  <defs>
    <style>
      .cls-1 {
        fill: #a96840;
      }

      .cls-2 {
        fill: #ee7478;
      }

      .cls-3 {
        fill: #fff;
      }

      .cls-4 {
        fill: #edc295;
      }

      .cls-5 {
        fill: #fff5ce;
      }

      .cls-6 {
        fill: #34130d;
      }
    </style>
  </defs>
  <g id="Layer_1" data-name="Layer 1">
    <g>
      <path class="cls-4" d="m275,72.01c-24.59-11.25-27.6-33.64-18.58-36.47,19.16-6,32.98,21.32,32.98,21.32,0,0-17.19-42.71,6.7-45.74,28.39-3.6,12.73,48.51,11.86,46.44-.87-2.06,18.53-27.95,32.95-22.87,14.81,5.22-6.46,35.98-19.07,37.31h-46.85Z"/>
      <path class="cls-4" d="m45.74,4.37C-30.92,47.75-51.23,466.28,313.39,466.28c345.79,0,317-434.4,248.12-461.91-33.72-13.47-110.88,29.85-136.93,92.95-57.34-41.4-186.21-33.9-242.97,0C146.55,35.56,80.95-15.55,45.74,4.37Z"/>
      <path class="cls-5" d="m346.94,464.83c20.41-32.62,66.81-57.27,65.53-90.51-1.61-41.88-65.24-81.89-79.74-119.88-10.2-26.72-6.84-128.71.53-184.55-19.11-1.39-38.88-1.04-58.03.88,7.24,55.53,10.44,157.19.34,183.67-14.5,37.98-78.13,78-79.74,119.88-1.26,32.64,43.46,57,64.41,88.74,16.74,2.1,34.43,3.22,53.16,3.22,11.61,0,22.77-.5,33.55-1.45Z"/>
      <path class="cls-5" d="m139.23,81.64c-11.62-23.29-54.77-64.14-77.62-57.64-28.67,8.15-45.5,92.19-28.09,129.08,8.57,19.25,44.07,5.88,44.23-25.54,20.03,21.68,34.41,3.02,30.79-19.46,18.14,14.44,39.8-8.16,30.68-26.44Z"/>
      <path class="cls-5" d="m466.44,76.18c12.66-25.31,47.57-57.01,78.16-52.18,29.45,4.65,47.23,92.19,29.81,129.08-8.57,19.25-45.8,5.88-45.96-25.54-20.03,21.68-34.41,3.02-30.79-19.46-18.14,14.44-42.88-8.57-31.22-31.9Z"/>
      <g>
        <g>
          <circle class="cls-3" cx="179.62" cy="241.35" r="73.03" transform="translate(-52.11 49.48) rotate(-13.72)"/>
          <circle class="cls-6" cx="162.26" cy="228.27" r="46.46" transform="translate(-111.46 287.54) rotate(-66.81)"/>
          <circle class="cls-3" cx="148.91" cy="203.45" r="12.49"/>
        </g>
        <g>
          <circle class="cls-3" cx="427.73" cy="241.35" r="73.03" transform="translate(-45.03 108.32) rotate(-13.72)"/>
          <circle class="cls-6" cx="410.41" cy="228.27" r="46.46" transform="translate(-46.54 119.94) rotate(-15.75)"/>
          <circle class="cls-3" cx="397.06" cy="203.45" r="12.49"/>
        </g>
      </g>
      <g>
        <path class="cls-6" d="m156.41,118.09c17.71-5.43,24.06,15.73,13.93,18.3-24.64,6.25-36.11,11.98-38.76,10.79-5.29-2.35,8.81-24.18,24.84-29.1Z"/>
        <path class="cls-6" d="m450.94,118.09c-17.71-5.43-24.06,15.73-13.93,18.3,24.64,6.25,36.11,11.98,38.76,10.79,5.29-2.35-8.81-24.18-24.84-29.1Z"/>
      </g>
      <g>
        <g>
          <path class="cls-6" d="m358.31,340.2s1.61,49.38-52.62,49.38c-57.07,0-53.43-49.38-53.43-49.38,0,0,33.61,5.15,52.55-16.08,16.66,20.63,41.45,19.37,53.51,16.08Z"/>
          <path class="cls-2" d="m305.69,389.58c-7.26,0-13.52-.8-18.95-2.2,2.2-11.91,8.85-23.46,23.62-31.84,18.15-10.3,33.76-8.58,46.29-2.27-3.61,14.63-15.02,36.31-50.96,36.31Z"/>
        </g>
        <path class="cls-6" d="m304.16,336.12c-.17,0-.35-.01-.53-.04-2.13-.29-3.62-2.25-3.33-4.38.03-.18,2.44-18.26-.22-29.15-.51-2.09.77-4.19,2.86-4.7,2.1-.51,4.19.77,4.7,2.86,3.01,12.33.48,31.25.37,32.05-.27,1.95-1.94,3.36-3.85,3.36Z"/>
        <path class="cls-2" d="m346.39,257.49c-9.75-11.64-34.77-14.15-47.28-13.16-16.46,1.28-33.07,6.68-40.09,15.8-10.03,13.03-1.79,24.95,15.72,36.15,10.74,6.87,28.27,11.65,31.28,11.65,1.88,0,20.46-6.87,29.63-13.74,16.18-12.13,20.5-24.94,10.73-36.7Z"/>
      </g>
      <g>
        <g>
          <path class="cls-1" d="m38.42,323.7c-1.26,0-2.47-.7-3.06-1.9-.84-1.69-.15-3.74,1.54-4.58,56.06-27.82,168.16-29.52,249.89-3.8,1.8.57,2.8,2.48,2.23,4.28-.57,1.8-2.49,2.8-4.28,2.23-80.28-25.27-190.1-23.74-244.8,3.4-.49.24-1.01.36-1.52.36Z"/>
          <path class="cls-1" d="m32.52,350.98c-1.24,0-2.44-.68-3.05-1.86-.86-1.68-.19-3.74,1.49-4.6,61.04-31.2,159.64-43.67,229.36-29.02,1.85.39,3.03,2.2,2.64,4.05-.39,1.85-2.2,3.03-4.05,2.64-68.37-14.37-165.04-2.15-224.85,28.42-.5.25-1.03.38-1.55.38Z"/>
          <path class="cls-1" d="m46.98,382.76c-1.13,0-2.24-.56-2.89-1.58-1.01-1.59-.54-3.7,1.05-4.72,57.84-36.78,154.84-58.45,225.63-50.39,1.88.21,3.22,1.91,3.01,3.78-.21,1.88-1.91,3.23-3.78,3.01-69.42-7.89-164.51,13.33-221.2,49.37-.57.36-1.2.53-1.83.53Z"/>
        </g>
        <g>
          <path class="cls-1" d="m571.19,325.98c-.51,0-1.03-.11-1.52-.36-54.7-27.14-164.51-28.67-244.8-3.4-1.8.57-3.72-.43-4.28-2.23-.57-1.8.43-3.72,2.23-4.28,81.72-25.73,193.82-24.02,249.89,3.8,1.69.84,2.38,2.89,1.54,4.58-.6,1.2-1.81,1.9-3.06,1.9Z"/>
          <path class="cls-1" d="m577.08,353.26c-.52,0-1.05-.12-1.55-.38-59.81-30.57-156.48-42.79-224.85-28.42-1.85.39-3.66-.79-4.05-2.64-.39-1.85.79-3.66,2.64-4.05,69.72-14.65,168.33-2.17,229.36,29.02,1.68.86,2.35,2.92,1.49,4.6-.6,1.18-1.8,1.86-3.05,1.86Z"/>
          <path class="cls-1" d="m562.62,385.04c-.63,0-1.26-.17-1.83-.53-56.68-36.04-151.78-57.27-221.2-49.37-1.88.21-3.57-1.13-3.78-3.01-.21-1.88,1.13-3.57,3.01-3.78,70.79-8.06,167.79,13.61,225.63,50.39,1.59,1.01,2.06,3.12,1.05,4.72-.65,1.02-1.76,1.58-2.89,1.58Z"/>
        </g>
      </g>
    </g>
  </g>
</svg>